<svg xmlns="http://www.w3.org/2000/svg" class="Nav-logo" viewBox="0 0 375 120">
  <path fill="#76A11E" d="M210 37l-4.1 46.8L163.1 64l4.3-46.8"/>
  <path fill="#B8CF32" d="M197.1 47.2l-1.4 18.5-9.1-15.8.7-9.6-.4-.1-.7 8.9-7.9-13.4-.4.3 7.7 13.4-8-3.8-.2.4 8.8 4.2 9 15.7-16.9-7.9-.2.5 17.6 8.2 8.4 14.6.3-.3-8.3-14.6 1.6-19.1"/>
  <path fill="#A0B634" d="M232.7 45.4l-26.8 38.4-27-38.4 27-38.5"/>
  <path fill="#3D6118" d="M216.7 47.8L206.1 63V44.8l5.5-7.9-.4-.3-5.1 7.3V28.5h-.4v15.4l-5.1-7.3-.4.3 5.5 7.9V63L195 47.8l-.4.3 11.1 15.8v16.7h.4V63.9l11.1-15.8"/>
  <g>
    <path fill="#B8CF32" d="M248.6 64l-42.7 19.8-4.2-46.8 42.6-19.8"/>
    <path fill="#3D6118" d="M233.3 58l-16.8 7.8 9.1-15.7 8.7-4.1-.2-.4-8.1 3.8 7.6-13.4-.3-.3-7.7 13.4-.9-8.9-.3.1.7 9.6-8.9 15.8-1.7-18.5h-.4l1.7 19.2-8.6 14.6.4.3 8.6-14.6 17.3-8.2"/>
  </g>
  <text transform="translate(3.54 77.902)" fill="#729626" font-family="Georgia" font-size="54.62">Vegan</text>
  <text transform="translate(255.925 77.902)" fill="#729626" font-family="Georgia" font-size="54.62">Blatt</text>
  <text id="tagline" fill="#729626" font-family="Georgia" font-size="25.241" x="375" y="110" text-anchor="end">Das vegane Magazin</text>
</svg>